<?xml version="1.0" standalone="no"?>
<!DOCTYPE svg PUBLIC "-//W3C//DTD SVG 20010904//EN"
 "http://www.w3.org/TR/2001/REC-SVG-20010904/DTD/svg10.dtd">
<svg version="1.0" xmlns="http://www.w3.org/2000/svg"
 width="512.000000pt" height="512.000000pt" viewBox="0 0 512.000000 512.000000"
 preserveAspectRatio="xMidYMid meet">

<g transform="translate(0.000000,512.000000) scale(0.100000,-0.100000)"
fill="#000000" stroke="none">
<path d="M2565 3569 c-234 -27 -443 -72 -635 -136 -192 -64 -336 -130 -630
-288 l-135 -72 -135 -12 c-266 -22 -504 -88 -740 -203 -141 -69 -217 -135
-261 -223 -24 -50 -24 -53 -27 -382 -3 -323 -2 -333 18 -353 18 -18 32 -20
179 -20 l160 0 32 -65 c36 -74 108 -152 183 -199 254 -160 581 -72 721 195
l36 69 1134 0 1135 0 31 -62 c86 -171 271 -283 464 -280 193 2 361 107 447
280 26 53 35 62 57 62 31 0 302 107 366 144 24 14 59 47 78 73 66 91 67 100
67 531 -1 406 -1 406 -46 430 -11 6 -152 29 -314 53 l-293 42 -84 48 c-301
174 -663 298 -1035 355 -123 18 -650 28 -773 13z m155 -329 l0 -170 -597 1
-598 0 100 51 c305 155 638 247 1025 282 19 1 43 4 53 4 16 2 17 -12 17 -168z
m600 145 c195 -30 455 -96 585 -151 l38 -16 -74 -74 -73 -74 -453 0 -453 0 0
172 0 171 163 -6 c89 -4 209 -14 267 -22z m873 -281 c39 -20 102 -54 139 -76
66 -39 72 -40 305 -74 131 -18 253 -36 271 -39 31 -6 32 -7 32 -55 l0 -50
-130 0 -131 0 3 -82 3 -83 128 -3 127 -3 0 -190 c0 -203 -4 -221 -52 -266 -20
-19 -256 -123 -279 -123 -4 0 -10 24 -14 53 -22 163 -129 313 -275 387 -202
102 -433 65 -593 -95 -84 -84 -147 -219 -147 -317 l0 -38 -345 0 -345 0 0 425
0 425 487 0 486 0 121 120 c67 66 124 120 129 120 4 0 40 -16 80 -36z m-1473
-629 l0 -425 -680 0 -679 0 -6 38 c-3 20 -12 63 -21 95 -46 183 -218 336 -413
368 -270 45 -537 -152 -582 -428 l-12 -73 -84 0 -85 0 4 238 3 237 28 48 c34
57 99 102 237 163 181 79 373 132 560 153 41 5 447 9 903 10 l827 1 0 -425z
m-1769 -106 c19 -5 57 -23 83 -41 214 -141 193 -464 -39 -586 -44 -24 -61 -27
-150 -27 -89 0 -106 3 -150 27 -207 109 -253 380 -92 542 94 93 208 122 348
85z m3285 -20 c138 -66 214 -218 184 -365 -16 -78 -42 -127 -94 -178 -67 -64
-127 -90 -221 -94 -112 -5 -181 21 -256 97 -75 77 -102 146 -97 251 12 249
260 397 484 289z"/>
<path d="M2122 2728 l3 -83 170 0 170 0 3 83 3 82 -176 0 -176 0 3 -82z"/>
</g>
</svg>
