<?xml version="1.0" standalone="no"?>
<!DOCTYPE svg PUBLIC "-//W3C//DTD SVG 20010904//EN"
 "http://www.w3.org/TR/2001/REC-SVG-20010904/DTD/svg10.dtd">
<svg version="1.0" xmlns="http://www.w3.org/2000/svg"
 width="512.000000pt" height="512.000000pt" viewBox="0 0 512.000000 512.000000"
 preserveAspectRatio="xMidYMid meet">

<g transform="translate(0.000000,512.000000) scale(0.100000,-0.100000)"
fill="#000000" stroke="none">
<path d="M2600 3574 c-506 -60 -807 -159 -1286 -425 -128 -71 -148 -79 -196
-79 -138 0 -377 -44 -556 -102 -68 -22 -185 -71 -261 -109 -118 -58 -146 -76
-193 -128 -98 -105 -102 -125 -106 -471 -2 -162 -1 -304 3 -317 3 -12 15 -32
27 -43 20 -18 35 -20 179 -20 l156 0 32 -65 c52 -105 160 -201 281 -249 60
-24 220 -33 291 -16 135 31 274 142 338 268 l31 62 1135 0 1135 0 31 -62 c62
-122 187 -224 323 -263 76 -22 239 -17 306 10 123 49 230 147 286 261 21 43
31 54 50 54 13 0 98 30 190 66 190 76 253 122 295 216 24 53 24 57 27 442 3
402 1 430 -37 453 -10 7 -151 31 -312 53 l-294 42 -105 59 c-311 173 -624 281
-986 340 -108 18 -180 22 -439 24 -170 2 -326 1 -345 -1z m577 -175 c71 -6
131 -14 135 -18 6 -5 -163 -74 -384 -157 -16 -6 -18 3 -18 90 l0 96 70 0 c38
0 127 -5 197 -11z m-449 -125 l-3 -127 -85 -33 -85 -33 -500 0 -500 1 100 48
c311 152 731 264 1008 269 l68 1 -3 -126z m-1805 -1068 c67 -27 115 -115 102
-184 -15 -87 -87 -146 -176 -145 -89 1 -158 64 -167 153 -12 132 119 228 241
176z m3257 -9 c51 -27 90 -90 90 -146 0 -45 -36 -118 -71 -144 -65 -47 -166
-39 -224 19 -65 65 -70 159 -13 228 56 69 139 85 218 43z"/>
</g>
</svg>
